<?xml version="1.0" encoding="UTF-8"?>
<svg id="Layer_1" xmlns="http://www.w3.org/2000/svg" version="1.1" viewBox="0 0 474.41 554.72">
  <!-- Generator: Adobe Illustrator 29.0.1, SVG Export Plug-In . SVG Version: 2.1.0 Build 192)  -->
  <defs>
    <style>
      .st0 {
        fill: #fff;
      }

      .st1 {
        fill: none;
      }

      .st2 {
        fill: #ec7820;
      }

      .st3 {
        fill: #ff7800;
      }
    </style>
  </defs>
  <g>
    <rect class="st2" x="-500.68" y="120.17" width="237.64" height="237.64"/>
    <g>
      <path class="st0" d="M-419.65,327.85c0,2.22,1.4,4.3,3.93,4.3,2.73,0,5.4-1.14,8.06-3.48v-7.83c-8.13,1.01-11.99,3.1-11.99,7.02M-407.45,334.81c-3.37,2.22-7.01,3.29-10.94,3.29-6.17,0-9.82-4.11-9.82-9.61,0-7.4,6.8-11.32,20.83-12.9v-1.84c0-2.41-1.82-3.8-5.19-3.8s-6.1,1.33-8.06,3.8l-5.89-3.35c3.09-4.3,7.78-6.45,14.1-6.45,8.62,0,13.46,3.73,13.46,9.81,0,0-.01,23.92,0,23.98h-7.72l-.77-2.91Z"/>
      <path class="st0" d="M-392.08,305.5l7.2-.99.79,3.92c4.07-2.98,7.29-4.56,11.36-4.56,6.8,0,10.31,3.61,10.31,10.76v23.03h-8.7v-21.52c0-4.05-1.05-5.88-4.21-5.88-2.6,0-5.19,1.2-8.14,3.67v23.73h-8.63v-32.16Z"/>
      <path class="st0" d="M-298.25,316.79c0-4.43-2.52-7.03-6.66-7.03-3.92,0-6.38,2.53-6.73,7.03h13.39ZM-304.77,338.3c-9.75,0-15.57-6.26-15.57-17.15s5.89-17.27,15.43-17.27,15.22,6.07,15.22,16.83c0,.57-.07,1.14-.07,1.71h-22.02c.07,6.26,2.66,9.43,7.79,9.43,3.29,0,5.47-1.33,7.5-4.24l6.38,3.54c-2.81,4.68-7.85,7.15-14.66,7.15"/>
      <path class="st0" d="M-471.43,311.11c-6.5,0-7.7,5.86-7.7,10.1s1.2,10.1,7.7,10.1,7.7-5.86,7.7-10.1-1.21-10.1-7.7-10.1M-471.43,338.66c-8.6,0-16.36-5.49-16.36-17.45s7.76-17.46,16.36-17.46,16.36,5.49,16.36,17.46-7.76,17.45-16.36,17.45"/>
      <path class="st0" d="M-449.1,304.62h8.27v3.89c1.58-2.09,5.47-4.57,9.12-4.57.35,0,.77,0,1.12.06v8.16h-.42c-3.79,0-7.92.58-9.26,3.53v22h-8.84v-33.07Z"/>
      <path class="st0" d="M-325.58,304.5v31.32c0,5.53-.42,14.62-16.18,14.72-6.5.04-12.53-2.56-13.74-8.24l8.59-1.38c.36,1.62,1.35,3.25,6.23,3.25,4.51,0,6.68-2.16,6.68-7.33v-3.85l-.12-.12c-1.38,2.46-3.49,4.81-8.54,4.81-7.7,0-13.78-5.35-13.78-16.53s6.26-17.25,13.29-17.26c6.59-.01,9.05,3,9.61,4.58l-.1-.02.71-3.96h7.35ZM-341.11,330.59c6.61-.05,7.16-6.77,7.16-11.15,0-5.16-2.53-9.37-7.22-9.37-3.13,0-6.62,2.28-6.62,9.73,0,4.09.29,10.84,6.68,10.79"/>
    </g>
    <path class="st0" d="M-272.03,303h-1.81v-9.12h-.05l-3.58,9.12h-1.14l-3.58-9.12h-.05v9.12h-1.8v-10.93h2.78l3.26,8.3,3.21-8.3h2.76v10.93ZM-286.27,293.53h-3.42v9.47h-1.8v-9.47h-3.42v-1.46h8.65v1.46Z"/>
    <path class="st0" d="M-488.85,436.47h-11.83v-39.54h11.83v39.54ZM-488.85,390.81h-11.83v-8.95h11.83v8.95Z"/>
    <g>
      <path class="st0" d="M-463.97,395.86c5.77,0,10.28,1.07,13.53,3.21,3.25,2.14,5.06,5.28,5.46,9.41h-11.24c-.17-1.89-.92-3.25-2.25-4.09-1.33-.84-3.28-1.26-5.83-1.26-2.22,0-3.87.31-4.96.92-1.08.61-1.62,1.53-1.62,2.75,0,.92.36,1.68,1.08,2.29.72.61,1.82,1.15,3.29,1.61,1.47.46,3.09.84,4.87,1.15,5.39.97,9.19,1.96,11.41,2.98,2.22,1.02,3.84,2.24,4.87,3.67,1.03,1.43,1.54,3.19,1.54,5.28,0,4.44-1.76,7.84-5.29,10.21-3.53,2.37-8.31,3.55-14.36,3.55s-11.26-1.25-14.78-3.75c-3.53-2.5-5.34-5.89-5.46-10.17h11.24c0,2.04.86,3.66,2.58,4.86,1.72,1.2,3.89,1.8,6.5,1.8,2.22,0,4.07-.45,5.54-1.34,1.47-.89,2.21-2.13,2.21-3.71,0-1.02-.46-1.86-1.37-2.52s-2.21-1.25-3.87-1.76c-1.67-.51-4.25-1.09-7.74-1.76-2.78-.51-5.25-1.2-7.41-2.07-2.16-.87-3.82-2-4.95-3.4-1.14-1.4-1.71-3.12-1.71-5.16,0-2.6.68-4.87,2.04-6.81,1.36-1.94,3.44-3.4,6.24-4.4,2.8-.99,6.29-1.49,10.45-1.49"/>
      <path class="st0" d="M-413.59,381.86v20.57h.25c1.33-2.04,3.14-3.65,5.41-4.82,2.27-1.17,4.69-1.76,7.24-1.76,5.49,0,9.48,1.27,11.95,3.82,2.47,2.55,3.71,6.58,3.71,12.08v24.7h-11.83v-22.49c0-3.21-.57-5.61-1.71-7.19-1.14-1.58-3.1-2.37-5.87-2.37-3.17,0-5.48.88-6.95,2.64-1.47,1.76-2.21,4.65-2.21,8.68v20.73h-11.83v-54.61h11.83Z"/>
      <path class="st0" d="M-349.04,412.45c-.56-2.96-1.58-5.1-3.08-6.42-1.5-1.32-3.64-1.99-6.41-1.99s-5.16.75-6.83,2.26c-1.67,1.5-2.64,3.56-2.91,6.15h19.23ZM-358.12,395.86c4.05,0,7.66.87,10.83,2.6,3.16,1.73,5.65,4.24,7.45,7.53,1.8,3.29,2.71,7.07,2.71,11.36,0,.41-.03,1.07-.08,1.99h-31.06c.11,3.16,1.01,5.62,2.71,7.38,1.69,1.76,4.29,2.64,7.79,2.64,2.16,0,4.15-.5,5.95-1.49,1.8-.99,2.96-2.2,3.45-3.63h10.41c-3.05,8.87-9.77,13.31-20.15,13.31-3.94-.05-7.59-.84-10.95-2.37-3.36-1.53-6.04-3.91-8.04-7.15-2-3.24-3-7-3-11.28,0-4.03,1.01-7.7,3.04-11.01,2.02-3.31,4.72-5.79,8.08-7.42,3.36-1.63,6.98-2.45,10.87-2.45"/>
      <path class="st0" d="M-306.95,395.86c1,0,1.86.13,2.58.38v10.1c-1.28-.25-2.7-.38-4.25-.38-7.77,0-11.66,4.23-11.66,12.69v17.82h-11.82v-39.54h11.24v7.34h.17c1.17-2.55,3.01-4.59,5.54-6.12,2.53-1.53,5.26-2.29,8.2-2.29"/>
      <path class="st0" d="M-272.57,412.45c-.56-2.96-1.58-5.1-3.08-6.42-1.5-1.32-3.64-1.99-6.41-1.99s-5.16.75-6.83,2.26c-1.67,1.5-2.64,3.56-2.91,6.15h19.23ZM-281.65,395.86c4.05,0,7.66.87,10.83,2.6,3.16,1.73,5.65,4.24,7.45,7.53,1.8,3.29,2.71,7.07,2.71,11.36,0,.41-.03,1.07-.08,1.99h-31.06c.11,3.16,1.01,5.62,2.71,7.38,1.69,1.76,4.29,2.64,7.79,2.64,2.16,0,4.15-.5,5.95-1.49,1.8-.99,2.96-2.2,3.45-3.63h10.41c-3.05,8.87-9.77,13.31-20.15,13.31-3.94-.05-7.59-.84-10.95-2.37-3.36-1.53-6.04-3.91-8.04-7.15-2-3.24-3-7-3-11.28,0-4.03,1.01-7.7,3.04-11.01,2.02-3.31,4.72-5.79,8.08-7.42,3.36-1.63,6.98-2.45,10.87-2.45"/>
    </g>
    <g>
      <rect class="st1" x="-261.46" y="435.82" width="117.32" height="117.32"/>
      <rect class="st1" x="-618.55" y="438.39" width="117.32" height="117.32"/>
      <rect class="st1" x="-261.46" y="1" width="117.32" height="117.32"/>
      <rect class="st1" x="-618.49" y="1" width="117.32" height="117.32"/>
    </g>
  </g>
  <g>
    <rect class="st3" x="117.88" y="119.17" width="237.64" height="237.64"/>
    <g>
      <path class="st0" d="M198.9,326.85c0,2.22,1.4,4.3,3.93,4.3,2.73,0,5.4-1.14,8.06-3.48v-7.83c-8.13,1.01-11.99,3.1-11.99,7.02M211.1,333.81c-3.37,2.22-7.01,3.29-10.94,3.29-6.17,0-9.82-4.11-9.82-9.61,0-7.4,6.8-11.32,20.83-12.9v-1.84c0-2.41-1.82-3.8-5.19-3.8s-6.1,1.33-8.06,3.8l-5.89-3.35c3.09-4.3,7.78-6.45,14.1-6.45,8.62,0,13.46,3.73,13.46,9.81,0,0-.01,23.92,0,23.98h-7.72l-.77-2.91Z"/>
      <path class="st0" d="M226.47,304.5l7.2-.99.79,3.92c4.07-2.98,7.29-4.56,11.36-4.56,6.8,0,10.31,3.61,10.31,10.76v23.03h-8.7v-21.52c0-4.05-1.05-5.88-4.21-5.88-2.6,0-5.19,1.2-8.14,3.67v23.73h-8.63v-32.16Z"/>
      <path class="st0" d="M320.31,315.79c0-4.43-2.52-7.03-6.66-7.03-3.92,0-6.38,2.53-6.73,7.03h13.39ZM313.79,337.3c-9.75,0-15.57-6.26-15.57-17.15s5.89-17.27,15.43-17.27,15.22,6.07,15.22,16.83c0,.57-.07,1.14-.07,1.71h-22.02c.07,6.26,2.66,9.43,7.79,9.43,3.29,0,5.47-1.33,7.5-4.24l6.38,3.54c-2.81,4.68-7.85,7.15-14.66,7.15"/>
      <path class="st0" d="M147.12,310.11c-6.5,0-7.7,5.86-7.7,10.1s1.2,10.1,7.7,10.1,7.7-5.86,7.7-10.1-1.21-10.1-7.7-10.1M147.12,337.66c-8.6,0-16.36-5.49-16.36-17.45s7.76-17.46,16.36-17.46,16.36,5.49,16.36,17.46-7.76,17.45-16.36,17.45"/>
      <path class="st0" d="M169.45,303.62h8.27v3.89c1.58-2.09,5.47-4.57,9.12-4.57.35,0,.77,0,1.12.06v8.16h-.42c-3.79,0-7.92.58-9.26,3.53v22h-8.84v-33.07Z"/>
      <path class="st0" d="M292.97,303.5v31.32c0,5.53-.42,14.62-16.18,14.72-6.5.04-12.53-2.56-13.74-8.24l8.59-1.38c.36,1.62,1.35,3.25,6.23,3.25,4.51,0,6.68-2.16,6.68-7.33v-3.85l-.12-.12c-1.38,2.46-3.49,4.81-8.54,4.81-7.7,0-13.78-5.35-13.78-16.53s6.26-17.25,13.29-17.26c6.59-.01,9.05,3,9.61,4.58l-.1-.02.71-3.96h7.35ZM277.45,329.59c6.61-.05,7.16-6.77,7.16-11.15,0-5.16-2.53-9.37-7.22-9.37-3.13,0-6.62,2.28-6.62,9.73,0,4.09.29,10.84,6.68,10.79"/>
    </g>
    <path class="st0" d="M346.53,302h-1.81v-9.12h-.05l-3.58,9.12h-1.14l-3.58-9.12h-.05v9.12h-1.8v-10.93h2.78l3.26,8.3,3.21-8.3h2.76v10.93ZM332.28,292.53h-3.42v9.47h-1.8v-9.47h-3.42v-1.46h8.65v1.46Z"/>
    <path d="M129.7,435.47h-11.83v-39.54h11.83v39.54ZM129.7,389.81h-11.83v-8.95h11.83v8.95Z"/>
    <g>
      <path d="M154.58,394.86c5.77,0,10.28,1.07,13.53,3.21,3.25,2.14,5.06,5.28,5.46,9.41h-11.24c-.17-1.89-.92-3.25-2.25-4.09-1.33-.84-3.28-1.26-5.83-1.26-2.22,0-3.87.31-4.96.92-1.08.61-1.62,1.53-1.62,2.75,0,.92.36,1.68,1.08,2.29.72.61,1.82,1.15,3.29,1.61,1.47.46,3.09.84,4.87,1.15,5.39.97,9.19,1.96,11.41,2.98,2.22,1.02,3.84,2.24,4.87,3.67,1.03,1.43,1.54,3.19,1.54,5.28,0,4.44-1.76,7.84-5.29,10.21-3.53,2.37-8.31,3.55-14.36,3.55s-11.26-1.25-14.78-3.75c-3.53-2.5-5.34-5.89-5.46-10.17h11.24c0,2.04.86,3.66,2.58,4.86,1.72,1.2,3.89,1.8,6.5,1.8,2.22,0,4.07-.45,5.54-1.34,1.47-.89,2.21-2.13,2.21-3.71,0-1.02-.46-1.86-1.37-2.52s-2.21-1.25-3.87-1.76c-1.67-.51-4.25-1.09-7.74-1.76-2.78-.51-5.25-1.2-7.41-2.07-2.16-.87-3.82-2-4.95-3.4-1.14-1.4-1.71-3.12-1.71-5.16,0-2.6.68-4.87,2.04-6.81,1.36-1.94,3.44-3.4,6.24-4.4,2.8-.99,6.29-1.49,10.45-1.49"/>
      <path d="M204.96,380.86v20.57h.25c1.33-2.04,3.14-3.65,5.41-4.82,2.27-1.17,4.69-1.76,7.24-1.76,5.49,0,9.48,1.27,11.95,3.82,2.47,2.55,3.71,6.58,3.71,12.08v24.7h-11.83v-22.49c0-3.21-.57-5.61-1.71-7.19-1.14-1.58-3.1-2.37-5.87-2.37-3.17,0-5.48.88-6.95,2.64-1.47,1.76-2.21,4.65-2.21,8.68v20.73h-11.83v-54.61h11.83Z"/>
      <path d="M269.51,411.45c-.56-2.96-1.58-5.1-3.08-6.42-1.5-1.32-3.64-1.99-6.41-1.99s-5.16.75-6.83,2.26c-1.67,1.5-2.64,3.56-2.91,6.15h19.23ZM260.43,394.86c4.05,0,7.66.87,10.83,2.6,3.16,1.73,5.65,4.24,7.45,7.53,1.8,3.29,2.71,7.07,2.71,11.36,0,.41-.03,1.07-.08,1.99h-31.06c.11,3.16,1.01,5.62,2.71,7.38,1.69,1.76,4.29,2.64,7.79,2.64,2.16,0,4.15-.5,5.95-1.49,1.8-.99,2.96-2.2,3.45-3.63h10.41c-3.05,8.87-9.77,13.31-20.15,13.31-3.94-.05-7.59-.84-10.95-2.37-3.36-1.53-6.04-3.91-8.04-7.15-2-3.24-3-7-3-11.28,0-4.03,1.01-7.7,3.04-11.01,2.02-3.31,4.72-5.79,8.08-7.42,3.36-1.63,6.98-2.45,10.87-2.45"/>
      <path d="M311.6,394.86c1,0,1.86.13,2.58.38v10.1c-1.28-.25-2.7-.38-4.25-.38-7.77,0-11.66,4.23-11.66,12.69v17.82h-11.82v-39.54h11.24v7.34h.17c1.17-2.55,3.01-4.59,5.54-6.12,2.53-1.53,5.26-2.29,8.2-2.29"/>
      <path d="M345.98,411.45c-.56-2.96-1.58-5.1-3.08-6.42-1.5-1.32-3.64-1.99-6.41-1.99s-5.16.75-6.83,2.26c-1.67,1.5-2.64,3.56-2.91,6.15h19.23ZM336.91,394.86c4.05,0,7.66.87,10.83,2.6,3.16,1.73,5.65,4.24,7.45,7.53,1.8,3.29,2.71,7.07,2.71,11.36,0,.41-.03,1.07-.08,1.99h-31.06c.11,3.16,1.01,5.62,2.71,7.38,1.69,1.76,4.29,2.64,7.79,2.64,2.16,0,4.15-.5,5.95-1.49,1.8-.99,2.96-2.2,3.45-3.63h10.41c-3.05,8.87-9.77,13.31-20.15,13.31-3.94-.05-7.59-.84-10.95-2.37-3.36-1.53-6.04-3.91-8.04-7.15-2-3.24-3-7-3-11.28,0-4.03,1.01-7.7,3.04-11.01,2.02-3.31,4.72-5.79,8.08-7.42,3.36-1.63,6.98-2.45,10.87-2.45"/>
    </g>
    <g>
      <rect class="st1" x="357.09" y="434.82" width="117.32" height="117.32"/>
      <rect class="st1" y="437.39" width="117.32" height="117.32"/>
      <rect class="st1" x="357.09" y="0" width="117.32" height="117.32"/>
      <rect class="st1" x=".06" width="117.32" height="117.32"/>
    </g>
  </g>
</svg>